<svg xmlns="http://www.w3.org/2000/svg" viewBox="0 0 1000 780" width="100%" style="max-width:1000px; background:#0d1117; border-radius:12px; font-family:-apple-system,BlinkMacSystemFont,'Segoe UI',Roboto,sans-serif;">
<rect width="1000" height="780" rx="12" fill="#0d1117"/>
<defs><linearGradient id="pGrad" x1="0%" y1="0%" x2="0%" y2="100%"><stop offset="0%" stop-color="#238636"/><stop offset="100%" stop-color="#1a7a2a"/></linearGradient><linearGradient id="gGrad" x1="0%" y1="0%" x2="0%" y2="100%"><stop offset="0%" stop-color="#d29922"/><stop offset="100%" stop-color="#b8860b"/></linearGradient><linearGradient id="bGrad" x1="0%" y1="0%" x2="0%" y2="100%"><stop offset="0%" stop-color="#1f6feb"/><stop offset="100%" stop-color="#1558b0"/></linearGradient><filter id="glow"><feDropShadow dx="0" dy="0" stdDeviation="3" flood-color="#58a6ff" flood-opacity="0.2"/></filter><marker id="arr" viewBox="0 0 10 10" refX="6" refY="5" markerWidth="6" markerHeight="6" orient="auto"><path d="M 0 0 L 10 5 L 0 10 z" fill="#58a6ff"/></marker><marker id="arrM" viewBox="0 0 10 10" refX="6" refY="5" markerWidth="5" markerHeight="5" orient="auto"><path d="M 0 0 L 10 5 L 0 10 z" fill="#8b949e"/></marker></defs>
<text x="500" y="30" fill="#58a6ff" font-size="16" font-weight="bold" text-anchor="middle" letter-spacing="1">WORKFLOW DIAGRAM</text>
<line x1="200" y1="42" x2="800" y2="42" stroke="#58a6ff" stroke-width="1" opacity="0.3"/>
<rect x="30" y="55" width="940" height="140" rx="8" fill="none" stroke="#30363d" stroke-width="1" stroke-dasharray="6,3" opacity="0.5"/>
<text x="44" y="73" fill="#58a6ff" font-size="11" font-weight="bold">CROSS-REPO PROPAGATION</text>
<rect x="55" y="90" width="110" height="30" rx="6" fill="#9e6a03" stroke="#bb8009" stroke-width="1.5"/>
<text x="110" y="98.0" text-anchor="middle" fill="#f0f6fc" font-size="11" font-weight="bold">propagate.sh</text>
<rect x="190" y="90" width="100" height="30" rx="6" fill="#1f6feb" stroke="#388bfd" stroke-width="1.5"/>
<text x="240" y="98.0" text-anchor="middle" fill="#f0f6fc" font-size="11" font-weight="bold">sync</text>
<rect x="320" y="90" width="100" height="30" rx="6" fill="#1f6feb" stroke="#388bfd" stroke-width="1.5"/>
<text x="370" y="98.0" text-anchor="middle" fill="#f0f6fc" font-size="11" font-weight="bold">propagate</text>
<rect x="450" y="90" width="100" height="30" rx="6" fill="#1f6feb" stroke="#388bfd" stroke-width="1.5"/>
<text x="500" y="98.0" text-anchor="middle" fill="#f0f6fc" font-size="11" font-weight="bold">all</text>
<rect x="590" y="78" width="85" height="24" rx="6" fill="#3d444d" stroke="#484f58" stroke-width="1.5"/>
<text x="632" y="83.0" text-anchor="middle" fill="#f0f6fc" font-size="9" font-weight="normal">.opencode/</text>
<rect x="590" y="108" width="85" height="24" rx="6" fill="#3d444d" stroke="#484f58" stroke-width="1.5"/>
<text x="632" y="113.0" text-anchor="middle" fill="#f0f6fc" font-size="9" font-weight="normal">.pi/</text>
<rect x="690" y="78" width="85" height="24" rx="6" fill="#3d444d" stroke="#484f58" stroke-width="1.5"/>
<text x="732" y="83.0" text-anchor="middle" fill="#f0f6fc" font-size="9" font-weight="normal">commands/</text>
<rect x="690" y="108" width="85" height="24" rx="6" fill="#3d444d" stroke="#484f58" stroke-width="1.5"/>
<text x="732" y="113.0" text-anchor="middle" fill="#f0f6fc" font-size="9" font-weight="normal">CLAUDE.md</text>
<rect x="810" y="90" width="130" height="30" rx="6" fill="#6e7681" stroke="#848d97" stroke-width="1.5"/>
<text x="875" y="98.0" text-anchor="middle" fill="#f0f6fc" font-size="10" font-weight="bold">97 targets/folder</text>
<line x1="165" y1="105" x2="190" y2="105" stroke="#58a6ff" stroke-width="1.5" stroke-linecap="butt" marker-end="url(#arr)"/>
<line x1="290" y1="105" x2="320" y2="105" stroke="#58a6ff" stroke-width="1.5" stroke-linecap="butt" marker-end="url(#arr)"/>
<line x1="420" y1="105" x2="450" y2="105" stroke="#58a6ff" stroke-width="1.5" stroke-linecap="butt" marker-end="url(#arr)"/>
<line x1="550" y1="105" x2="590" y2="92" stroke="#58a6ff" stroke-width="1.5" stroke-linecap="butt" marker-end="url(#arrM)"/>
<line x1="550" y1="105" x2="590" y2="118" stroke="#58a6ff" stroke-width="1.5" stroke-linecap="butt" marker-end="url(#arrM)"/>
<line x1="550" y1="105" x2="690" y2="92" stroke="#58a6ff" stroke-width="1.5" stroke-linecap="butt" marker-end="url(#arrM)"/>
<line x1="550" y1="105" x2="690" y2="118" stroke="#58a6ff" stroke-width="1.5" stroke-linecap="butt" marker-end="url(#arrM)"/>
<text x="620" y="82" fill="#3d444d" font-size="8" text-anchor="middle">Per topic folder</text>
<line x1="750" y1="105" x2="810" y2="105" stroke="#58a6ff" stroke-width="1.5" stroke-linecap="butt" marker-end="url(#arr)"/>
<text x="780" y="98" fill="#3d444d" font-size="8" text-anchor="middle">×14 folders</text>
<rect x="30" y="210" width="940" height="185" rx="8" fill="none" stroke="#30363d" stroke-width="1" stroke-dasharray="6,3" opacity="0.5"/>
<text x="44" y="228" fill="#58a6ff" font-size="11" font-weight="bold">TASK EXECUTION PIPELINE</text>
<ellipse cx="90" cy="260" rx="35" ry="16" fill="none" stroke="#58a6ff" stroke-width="1.5"/>
<text x="90" y="264" text-anchor="middle" fill="#8b949e" font-size="11" font-weight="bold">Start</text>
<rect x="170" y="241" width="100" height="38" rx="6" fill="#238636" stroke="#2ea043" stroke-width="1.5"/>
<text x="220" y="253.0" text-anchor="middle" fill="#f0f6fc" font-size="11" font-weight="bold">Route</text>
<text x="220" y="267.0" text-anchor="middle" fill="#f0f6fc" font-size="11" font-weight="bold">Intake</text>
<rect x="285" y="241" width="100" height="38" rx="6" fill="#238636" stroke="#2ea043" stroke-width="1.5"/>
<text x="335" y="253.0" text-anchor="middle" fill="#f0f6fc" font-size="11" font-weight="bold">Research</text>
<rect x="400" y="241" width="100" height="38" rx="6" fill="#238636" stroke="#2ea043" stroke-width="1.5"/>
<text x="450" y="253.0" text-anchor="middle" fill="#f0f6fc" font-size="11" font-weight="bold">Plan</text>
<rect x="515" y="241" width="100" height="38" rx="6" fill="#238636" stroke="#2ea043" stroke-width="1.5"/>
<text x="565" y="253.0" text-anchor="middle" fill="#f0f6fc" font-size="11" font-weight="bold">Implement</text>
<rect x="630" y="241" width="100" height="38" rx="6" fill="#238636" stroke="#2ea043" stroke-width="1.5"/>
<text x="680" y="253.0" text-anchor="middle" fill="#f0f6fc" font-size="11" font-weight="bold">Verify</text>
<rect x="745" y="241" width="100" height="38" rx="6" fill="#238636" stroke="#2ea043" stroke-width="1.5"/>
<text x="795" y="253.0" text-anchor="middle" fill="#f0f6fc" font-size="11" font-weight="bold">Session</text>
<text x="795" y="267.0" text-anchor="middle" fill="#f0f6fc" font-size="11" font-weight="bold">Checkpoint</text>
<rect x="860" y="241" width="100" height="38" rx="6" fill="#238636" stroke="#2ea043" stroke-width="1.5"/>
<text x="910" y="253.0" text-anchor="middle" fill="#f0f6fc" font-size="11" font-weight="bold">Close</text>
<ellipse cx="965" cy="260" rx="35" ry="16" fill="none" stroke="#58a6ff" stroke-width="1.5"/>
<text x="965" y="264" text-anchor="middle" fill="#8b949e" font-size="11" font-weight="bold">End</text>
<polygon points="248,236 272,260 248,284 224,260" fill="#d29922" stroke="#bb8009" stroke-width="1.5"/>
<text x="248" y="255.0" text-anchor="middle" fill="#f0f6fc" font-size="8" font-weight="bold">Q</text>
<text x="248" y="265.0" text-anchor="middle" fill="#f0f6fc" font-size="8" font-weight="bold">Gate</text>
<polygon points="363,232 391,260 363,288 335,260" fill="#d29922" stroke="#bb8009" stroke-width="1.5"/>
<text x="363" y="255.0" text-anchor="middle" fill="#f0f6fc" font-size="8" font-weight="bold">Research</text>
<text x="363" y="265.0" text-anchor="middle" fill="#f0f6fc" font-size="8" font-weight="bold">Gate</text>
<polygon points="478,232 506,260 478,288 450,260" fill="#d29922" stroke="#bb8009" stroke-width="1.5"/>
<text x="478" y="255.0" text-anchor="middle" fill="#f0f6fc" font-size="8" font-weight="bold">Plan</text>
<text x="478" y="265.0" text-anchor="middle" fill="#f0f6fc" font-size="8" font-weight="bold">Gate</text>
<polygon points="593,232 621,260 593,288 565,260" fill="#d29922" stroke="#bb8009" stroke-width="1.5"/>
<text x="593" y="255.0" text-anchor="middle" fill="#f0f6fc" font-size="8" font-weight="bold">Impl.</text>
<text x="593" y="265.0" text-anchor="middle" fill="#f0f6fc" font-size="8" font-weight="bold">Gate</text>
<polygon points="708,232 736,260 708,288 680,260" fill="#d29922" stroke="#bb8009" stroke-width="1.5"/>
<text x="708" y="255.0" text-anchor="middle" fill="#f0f6fc" font-size="8" font-weight="bold">Verify</text>
<text x="708" y="265.0" text-anchor="middle" fill="#f0f6fc" font-size="8" font-weight="bold">Gate</text>
<polygon points="823,232 851,260 823,288 795,260" fill="#d29922" stroke="#bb8009" stroke-width="1.5"/>
<text x="823" y="255.0" text-anchor="middle" fill="#f0f6fc" font-size="8" font-weight="bold">Session</text>
<text x="823" y="265.0" text-anchor="middle" fill="#f0f6fc" font-size="8" font-weight="bold">Gate</text>
<line x1="125" y1="260" x2="145" y2="260" stroke="#58a6ff" stroke-width="1.5" stroke-linecap="butt" marker-end="url(#arr)"/>
<line x1="272" y1="260" x2="285" y2="260" stroke="#58a6ff" stroke-width="1.5" stroke-linecap="butt" marker-end="url(#arr)"/>
<line x1="385" y1="260" x2="400" y2="260" stroke="#58a6ff" stroke-width="1.5" stroke-linecap="butt" marker-end="url(#arr)"/>
<line x1="500" y1="260" x2="515" y2="260" stroke="#58a6ff" stroke-width="1.5" stroke-linecap="butt" marker-end="url(#arr)"/>
<line x1="615" y1="260" x2="630" y2="260" stroke="#58a6ff" stroke-width="1.5" stroke-linecap="butt" marker-end="url(#arr)"/>
<line x1="730" y1="260" x2="745" y2="260" stroke="#58a6ff" stroke-width="1.5" stroke-linecap="butt" marker-end="url(#arr)"/>
<line x1="845" y1="260" x2="860" y2="260" stroke="#58a6ff" stroke-width="1.5" stroke-linecap="butt" marker-end="url(#arr)"/>
<line x1="900" y1="260" x2="930" y2="260" stroke="#58a6ff" stroke-width="1.5" stroke-linecap="butt" marker-end="url(#arr)"/>
<text x="248" y="310" text-anchor="middle" fill="#8b949e" font-size="7">model-select → sufficiency → scope-check</text>
<text x="363" y="310" text-anchor="middle" fill="#8b949e" font-size="7">model-select → CATFISH → scope → comprehension → decisions → autonomy → preflight</text>
<text x="478" y="310" text-anchor="middle" fill="#8b949e" font-size="7">quality-speed (full suite or smoke?)</text>
<text x="593" y="310" text-anchor="middle" fill="#8b949e" font-size="7">test-smoke · test-workflows · counsel-run</text>
<text x="708" y="310" text-anchor="middle" fill="#8b949e" font-size="7">checkpoint-commit · context-save · handoff</text>
<text x="823" y="310" text-anchor="middle" fill="#8b949e" font-size="7">close-task · finish-task · task-retrospect</text>
<text x="500" y="325" fill="#8b949e" font-size="8" text-anchor="middle">← Each gate runs a decision chain before allowing the next phase →</text>
<rect x="30" y="410" width="940" height="195" rx="8" fill="none" stroke="#30363d" stroke-width="1" stroke-dasharray="6,3" opacity="0.5"/>
<text x="44" y="428" fill="#58a6ff" font-size="11" font-weight="bold">BRANCH WORKFLOWS</text>
<line x1="70" y1="445" x2="930" y2="445" stroke="#30363d" stroke-width="1" stroke-dasharray="4,3" opacity="0.5"/>
<line x1="565" y1="279" x2="565" y2="415" stroke="#58a6ff" stroke-width="1.5" stroke-linecap="butt" marker-end="url(#arr)" stroke-dasharray="4,3"/>
<line x1="565" y1="415" x2="565" y2="445" stroke="#30363d" stroke-width="1" stroke-dasharray="4,3"/>
<rect x="75" y="453" width="140" height="50" rx="6" fill="#1f6feb" stroke="#388bfd" stroke-width="1.5"/>
<text x="145" y="471.0" text-anchor="middle" fill="#f0f6fc" font-size="10" font-weight="bold">Agent Dispatch</text>
<text x="145" y="485.0" text-anchor="middle" fill="#f0f6fc" font-size="10" font-weight="bold">Fan-out to pi/codex/claude</text>
<text x="145" y="513" text-anchor="middle" fill="#8b949e" font-size="8">agent-dispatch.sh</text>
<line x1="145" y1="445" x2="145" y2="453" stroke="#30363d" stroke-width="1" stroke-dasharray="2,2"/>
<rect x="300" y="453" width="140" height="50" rx="6" fill="#1f6feb" stroke="#388bfd" stroke-width="1.5"/>
<text x="370" y="471.0" text-anchor="middle" fill="#f0f6fc" font-size="10" font-weight="bold">Pipeline Run</text>
<text x="370" y="485.0" text-anchor="middle" fill="#f0f6fc" font-size="10" font-weight="bold">Sequenced task → @worker</text>
<text x="370" y="513" text-anchor="middle" fill="#8b949e" font-size="8">pipeline-run.sh</text>
<line x1="370" y1="445" x2="370" y2="453" stroke="#30363d" stroke-width="1" stroke-dasharray="2,2"/>
<rect x="525" y="453" width="140" height="50" rx="6" fill="#1f6feb" stroke="#388bfd" stroke-width="1.5"/>
<text x="595" y="471.0" text-anchor="middle" fill="#f0f6fc" font-size="10" font-weight="bold">Counsel / Parley</text>
<text x="595" y="485.0" text-anchor="middle" fill="#f0f6fc" font-size="10" font-weight="bold">Multi-perspective review</text>
<text x="595" y="513" text-anchor="middle" fill="#8b949e" font-size="8">counsel-run.sh</text>
<line x1="595" y1="445" x2="595" y2="453" stroke="#30363d" stroke-width="1" stroke-dasharray="2,2"/>
<rect x="750" y="453" width="140" height="50" rx="6" fill="#1f6feb" stroke="#388bfd" stroke-width="1.5"/>
<text x="820" y="471.0" text-anchor="middle" fill="#f0f6fc" font-size="10" font-weight="bold">Autopilot</text>
<text x="820" y="485.0" text-anchor="middle" fill="#f0f6fc" font-size="10" font-weight="bold">Autonomous execution loop</text>
<text x="820" y="513" text-anchor="middle" fill="#8b949e" font-size="8">autopilot.sh</text>
<line x1="820" y1="445" x2="820" y2="453" stroke="#30363d" stroke-width="1" stroke-dasharray="2,2"/>
<text x="145" y="525" fill="#8b949e" font-size="8" text-anchor="middle">Targets: pi-coding-agent · Codex CLI · Claude Code</text>
<text x="145" y="538" fill="#8b949e" font-size="8" text-anchor="middle">/ship: code-reviewer + security-auditor + test-engineer (parallel)</text>
<text x="370" y="525" fill="#8b949e" font-size="8" text-anchor="middle">Sub-agents: @worker (full tools) · @explore (read-only) · @review (diff)</text>
<text x="370" y="538" fill="#8b949e" font-size="8" text-anchor="middle">on_error: abort | continue | retry:N</text>
<rect x="30" y="620" width="940" height="105" rx="8" fill="none" stroke="#30363d" stroke-width="1" stroke-dasharray="6,3" opacity="0.5"/>
<text x="44" y="638" fill="#58a6ff" font-size="11" font-weight="bold">SESSION LIFECYCLE</text>
<line x1="60" y1="662" x2="940" y2="662" stroke="#30363d" stroke-width="1" stroke-dasharray="4,3" opacity="0.5"/>
<rect x="65" y="670" width="90" height="34" rx="6" fill="#3d444d" stroke="#484f58" stroke-width="1.5"/>
<text x="110" y="680.0" text-anchor="middle" fill="#f0f6fc" font-size="9" font-weight="bold">Checkpoint</text>
<text x="110" y="694.0" text-anchor="middle" fill="#f0f6fc" font-size="9" font-weight="bold">Commit</text>
<line x1="110" y1="662" x2="110" y2="670" stroke="#30363d" stroke-width="1" stroke-dasharray="2,2"/>
<rect x="205" y="670" width="90" height="34" rx="6" fill="#3d444d" stroke="#484f58" stroke-width="1.5"/>
<text x="250" y="680.0" text-anchor="middle" fill="#f0f6fc" font-size="9" font-weight="bold">Session</text>
<text x="250" y="694.0" text-anchor="middle" fill="#f0f6fc" font-size="9" font-weight="bold">Fork (worktree)</text>
<line x1="250" y1="662" x2="250" y2="670" stroke="#30363d" stroke-width="1" stroke-dasharray="2,2"/>
<rect x="345" y="670" width="90" height="34" rx="6" fill="#3d444d" stroke="#484f58" stroke-width="1.5"/>
<text x="390" y="680.0" text-anchor="middle" fill="#f0f6fc" font-size="9" font-weight="bold">Handoff</text>
<text x="390" y="694.0" text-anchor="middle" fill="#f0f6fc" font-size="9" font-weight="bold">(continuation)</text>
<line x1="390" y1="662" x2="390" y2="670" stroke="#30363d" stroke-width="1" stroke-dasharray="2,2"/>
<rect x="485" y="670" width="90" height="34" rx="6" fill="#3d444d" stroke="#484f58" stroke-width="1.5"/>
<text x="530" y="680.0" text-anchor="middle" fill="#f0f6fc" font-size="9" font-weight="bold">Context</text>
<text x="530" y="694.0" text-anchor="middle" fill="#f0f6fc" font-size="9" font-weight="bold">Restore</text>
<line x1="530" y1="662" x2="530" y2="670" stroke="#30363d" stroke-width="1" stroke-dasharray="2,2"/>
<rect x="625" y="670" width="90" height="34" rx="6" fill="#3d444d" stroke="#484f58" stroke-width="1.5"/>
<text x="670" y="680.0" text-anchor="middle" fill="#f0f6fc" font-size="9" font-weight="bold">Context</text>
<text x="670" y="694.0" text-anchor="middle" fill="#f0f6fc" font-size="9" font-weight="bold">Pressure</text>
<line x1="670" y1="662" x2="670" y2="670" stroke="#30363d" stroke-width="1" stroke-dasharray="2,2"/>
<rect x="765" y="670" width="90" height="34" rx="6" fill="#3d444d" stroke="#484f58" stroke-width="1.5"/>
<text x="810" y="680.0" text-anchor="middle" fill="#f0f6fc" font-size="9" font-weight="bold">Task</text>
<text x="810" y="694.0" text-anchor="middle" fill="#f0f6fc" font-size="9" font-weight="bold">Retrospect</text>
<line x1="810" y1="662" x2="810" y2="670" stroke="#30363d" stroke-width="1" stroke-dasharray="2,2"/>
<line x1="795" y1="279" x2="795" y2="630" stroke="#8b949e" stroke-width="1.5" stroke-linecap="butt" marker-end="url(#arrM)" stroke-dasharray="4,3"/>
<line x1="30" y1="750" x2="970" y2="750" stroke="#30363d" stroke-width="0.5" opacity="0.3"/>
<text x="30" y="760" fill="#8b949e" font-size="9">132 tools · 97 propagation pairs · 14 commands · 46 skills · 8 agents</text>
<text x="970" y="760" fill="#8b949e" font-size="9" text-anchor="end">Interactive: b67687.github.io/agentic-workflows/workflow-graph.html</text>
</svg>