<svg xmlns="http://www.w3.org/2000/svg" viewBox="0 0 700 400" style="max-width:700px; font-family:ui-monospace,'Cascadia Code','Fira Code',monospace; background:#0d1117; border-radius:10px;">
  <defs>
    <linearGradient id="blueBox" x1="0%" y1="0%" x2="100%" y2="100%">
      <stop offset="0%" stop-color="#16213e"/>
      <stop offset="100%" stop-color="#0f3460"/>
    </linearGradient>
    <linearGradient id="greenBox" x1="0%" y1="0%" x2="100%" y2="100%">
      <stop offset="0%" stop-color="#16213e"/>
      <stop offset="100%" stop-color="#1a3a1a"/>
    </linearGradient>
    <linearGradient id="mutedBox" x1="0%" y1="0%" x2="100%" y2="100%">
      <stop offset="0%" stop-color="#161b22"/>
      <stop offset="100%" stop-color="#0d1117"/>
    </linearGradient>
  </defs>

  <!-- Title -->
  <text x="350" y="35" fill="#58a6ff" font-size="14" font-weight="bold" text-anchor="middle" letter-spacing="1">agentic-workflows /</text>
  <text x="350" y="52" fill="#8b949e" font-size="11" text-anchor="middle">Agent orchestration harness</text>

  <!-- Core column -->
  <text x="30" y="82" fill="#58a6ff" font-size="10" font-weight="bold" letter-spacing="1">CORE</text>
  <line x1="30" y1="88" x2="160" y2="88" stroke="#58a6ff" stroke-width="1" opacity="0.3"/>

  <rect x="30" y="98" width="300" height="44" rx="6" fill="url(#blueBox)" stroke="#58a6ff" stroke-width="1.5"/>
  <text x="48" y="117" fill="#58a6ff" font-size="12" font-weight="bold">AGENTS.md</text>
  <text x="160" y="117" fill="#8b949e" font-size="10">Operating contract (read first)</text>
  <text x="48" y="132" fill="#8b949e" font-size="10">Shared rules, conventions, escalation paths</text>

  <rect x="30" y="152" width="300" height="44" rx="6" fill="url(#blueBox)" stroke="#0ea5e9" stroke-width="1"/>
  <text x="48" y="171" fill="#0ea5e9" font-size="12" font-weight="bold">commands/</text>
  <text x="148" y="171" fill="#8b949e" font-size="10">/task, /plan, /research slash commands</text>
  <text x="48" y="186" fill="#8b949e" font-size="10">14 commands for session, pipeline, git, research</text>

  <rect x="30" y="206" width="300" height="44" rx="6" fill="url(#blueBox)" stroke="#0ea5e9" stroke-width="1"/>
  <text x="48" y="225" fill="#0ea5e9" font-size="12" font-weight="bold">scripts/</text>
  <text x="128" y="225" fill="#8b949e" font-size="10">83 automation scripts + lifecycle hooks</text>
  <text x="48" y="240" fill="#8b949e" font-size="10">Error handling, a2h contact, session management</text>

  <rect x="30" y="260" width="300" height="44" rx="6" fill="url(#blueBox)" stroke="#0ea5e9" stroke-width="1"/>
  <text x="48" y="279" fill="#0ea5e9" font-size="12" font-weight="bold">docs/</text>
  <text x="118" y="279" fill="#8b949e" font-size="10">Quickstart, workflow, quality standards</text>
  <text x="48" y="294" fill="#8b949e" font-size="10">Hub quickstart, session checkpoints, ADRs</text>

  <!-- Skills column -->
  <text x="370" y="82" fill="#3fb950" font-size="10" font-weight="bold" letter-spacing="1">SKILLS &amp; TOOLING</text>
  <line x1="370" y1="88" x2="560" y2="88" stroke="#3fb950" stroke-width="1" opacity="0.3"/>

  <rect x="370" y="98" width="300" height="44" rx="6" fill="url(#greenBox)" stroke="#3fb950" stroke-width="1"/>
  <text x="388" y="117" fill="#3fb950" font-size="12" font-weight="bold">skills/</text>
  <text x="458" y="117" fill="#8b949e" font-size="10">42 engineering skills</text>
  <text x="388" y="132" fill="#8b949e" font-size="10">Debug, review, ship, document patterns</text>

  <rect x="370" y="152" width="300" height="44" rx="6" fill="url(#greenBox)" stroke="#3fb950" stroke-width="1"/>
  <text x="388" y="171" fill="#3fb950" font-size="12" font-weight="bold">propagation/</text>
  <text x="488" y="171" fill="#8b949e" font-size="10">Template engine for topic folders</text>
  <text x="388" y="186" fill="#8b949e" font-size="10">39 templates, change once replicate everywhere</text>

  <rect x="370" y="206" width="300" height="44" rx="6" fill="url(#greenBox)" stroke="#3fb950" stroke-width="1"/>
  <text x="388" y="225" fill="#3fb950" font-size="12" font-weight="bold">research/</text>
  <text x="478" y="225" fill="#8b949e" font-size="10">Active research campaigns</text>
  <text x="388" y="240" fill="#8b949e" font-size="10">6-phase systematic methodology</text>

  <rect x="370" y="260" width="300" height="44" rx="6" fill="url(#greenBox)" stroke="#3fb950" stroke-width="1"/>
  <text x="388" y="279" fill="#3fb950" font-size="12" font-weight="bold">wiki/</text>
  <text x="448" y="279" fill="#8b949e" font-size="10">SwarmVault knowledge graph</text>
  <text x="388" y="294" fill="#8b949e" font-size="10">Compiled knowledge from 50+ sources</text>

  <!-- Runtime column -->
  <text x="30" y="325" fill="#8b949e" font-size="10" font-weight="bold" letter-spacing="1">RUNTIME</text>
  <line x1="30" y1="331" x2="160" y2="331" stroke="#30363d" stroke-width="1" opacity="0.5"/>

  <rect x="30" y="340" width="300" height="44" rx="6" fill="url(#mutedBox)" stroke="#30363d" stroke-width="1"/>
  <text x="48" y="359" fill="#8b949e" font-size="12" font-weight="bold">.runtime/</text>
  <text x="140" y="359" fill="#8b949e" font-size="10">A2H, error-counter, agent-jobs</text>
  <text x="48" y="374" fill="#8b949e" font-size="10">Generated state (gitignored)</text>

  <rect x="370" y="340" width="300" height="44" rx="6" fill="url(#mutedBox)" stroke="#30363d" stroke-width="1"/>
  <text x="388" y="359" fill="#8b949e" font-size="12" font-weight="bold">swarmvault.schema.md</text>
  <text x="560" y="359" fill="#8b949e" font-size="10">Graph schema</text>
  <text x="388" y="374" fill="#8b949e" font-size="10">Knowledge graph structure</text>
</svg>
