<svg xmlns="http://www.w3.org/2000/svg" viewBox="0 0 1100 120" style="background:transparent; font-family:ui-monospace,'Cascadia Code','Fira Code',monospace;">
  <defs>
    <style>
      @keyframes pa { 0%,100% { opacity: 0.02; } 35% { opacity: 0.65; } 70% { opacity: 0.08; } }
      .pa { animation: pa 2.3s ease-in-out infinite; }
      @keyframes pb { 0%,100% { opacity: 0.05; } 35% { opacity: 0.5; } 70% { opacity: 0.12; } }
      .pb { animation: pb 1.8s ease-in-out infinite; }
      @keyframes pc { 0%,100% { opacity: 0.03; } 35% { opacity: 0.75; } 70% { opacity: 0.05; } }
      .pc { animation: pc 3.1s ease-in-out infinite; }
      @keyframes pd { 0%,100% { opacity: 0.08; } 35% { opacity: 0.4; } 70% { opacity: 0.15; } }
      .pd { animation: pd 4.5s ease-in-out infinite; }
      @keyframes pe { 0%,100% { opacity: 0.01; } 35% { opacity: 0.6; } 70% { opacity: 0.1; } }
      .pe { animation: pe 2.9s ease-in-out infinite; }
      @keyframes pf { 0%,100% { opacity: 0.06; } 35% { opacity: 0.55; } 70% { opacity: 0.03; } }
      .pf { animation: pf 5.8s ease-in-out infinite; }
      @keyframes pg { 0%,100% { opacity: 0.04; } 35% { opacity: 0.7; } 70% { opacity: 0.07; } }
      .pg { animation: pg 3.6s ease-in-out infinite; }
      @keyframes ph { 0%,100% { opacity: 0.07; } 35% { opacity: 0.45; } 70% { opacity: 0.12; } }
      .ph { animation: ph 1.2s ease-in-out infinite; }
      @keyframes fade1 {
        0%   { opacity: 0; }
        12%  { opacity: 0; }
        16%  { opacity: 1; }
        75%  { opacity: 1; }
        85%  { opacity: 0; }
        100% { opacity: 0; }
      }
      .fade1 { animation: fade1 14s ease-in-out infinite; }
      @keyframes fade2 {
        0%   { opacity: 0; }
        28%  { opacity: 0; }
        32%  { opacity: 1; }
        75%  { opacity: 1; }
        85%  { opacity: 0; }
        100% { opacity: 0; }
      }
      .fade2 { animation: fade2 14s ease-in-out infinite; }
      @keyframes fade3 {
        0%   { opacity: 0; }
        44%  { opacity: 0; }
        48%  { opacity: 1; }
        75%  { opacity: 1; }
        85%  { opacity: 0; }
        100% { opacity: 0; }
      }
      .fade3 { animation: fade3 14s ease-in-out infinite; }
      @keyframes fade4 {
        0%   { opacity: 0; }
        60%  { opacity: 0; }
        64%  { opacity: 1; }
        75%  { opacity: 1; }
        85%  { opacity: 0; }
        100% { opacity: 0; }
      }
      .fade4 { animation: fade4 14s ease-in-out infinite; }
      .text-layer { }
    </style>
  </defs>
  <g fill="#58a6ff">
    <circle cx="484.6" cy="7.6" r="1.6" class="pd"/>
    <circle cx="109.7" cy="15.8" r="2.4" class="pb"/>
    <circle cx="447.9" cy="8.3" r="1.3" class="pd"/>
    <circle cx="384.0" cy="7.8" r="1.5" class="pg"/>
    <circle cx="170.3" cy="66.9" r="2.5" class="pa"/>
    <circle cx="574.1" cy="21.8" r="1.9" class="pe"/>
    <circle cx="121.6" cy="105.5" r="1.7" class="pb"/>
    <circle cx="289.9" cy="42.7" r="1.8" class="pe"/>
    <circle cx="610.3" cy="81.6" r="2.1" class="pg"/>
    <circle cx="64.1" cy="35.8" r="2.2" class="pf"/>
    <circle cx="438.0" cy="79.0" r="1.3" class="pd"/>
    <circle cx="584.8" cy="108.4" r="2.6" class="pb"/>
    <circle cx="290.1" cy="52.6" r="2.5" class="pc"/>
    <circle cx="282.6" cy="27.0" r="1.6" class="pb"/>
    <circle cx="461.8" cy="23.0" r="2.4" class="pc"/>
    <circle cx="351.7" cy="33.3" r="2.7" class="pd"/>
    <circle cx="518.5" cy="93.5" r="2.4" class="pd"/>
    <circle cx="621.4" cy="89.5" r="1.8" class="pb"/>
    <circle cx="163.2" cy="104.0" r="2.6" class="pf"/>
    <circle cx="164.5" cy="57.4" r="2.6" class="ph"/>
    <circle cx="112.2" cy="19.7" r="2.4" class="pe"/>
    <circle cx="565.3" cy="50.0" r="2.1" class="pf"/>
    <circle cx="169.5" cy="109.7" r="2.0" class="pb"/>
    <circle cx="571.8" cy="95.4" r="1.4" class="pc"/>
    <circle cx="599.1" cy="49.3" r="1.3" class="pg"/>
    <circle cx="451.9" cy="54.1" r="1.6" class="pa"/>
    <circle cx="515.2" cy="17.0" r="2.6" class="pe"/>
    <circle cx="581.4" cy="40.7" r="1.7" class="pc"/>
    <circle cx="345.3" cy="105.2" r="2.6" class="pe"/>
    <circle cx="733.9" cy="85.0" r="2.0" class="pb"/>
    <circle cx="657.9" cy="36.3" r="2.2" class="pd"/>
    <circle cx="119.6" cy="85.1" r="2.1" class="pa"/>
    <circle cx="454.2" cy="56.3" r="1.4" class="pf"/>
    <circle cx="664.0" cy="92.3" r="1.7" class="pa"/>
    <circle cx="185.7" cy="64.6" r="1.3" class="ph"/>
    <circle cx="617.0" cy="107.7" r="2.1" class="pc"/>
    <circle cx="101.3" cy="54.9" r="2.1" class="pe"/>
    <circle cx="400.8" cy="68.7" r="2.7" class="pd"/>
    <circle cx="539.7" cy="46.9" r="2.3" class="pf"/>
    <circle cx="333.6" cy="59.3" r="1.4" class="pd"/>
    <circle cx="53.0" cy="7.2" r="2.1" class="pd"/>
    <circle cx="10.4" cy="79.3" r="1.3" class="pb"/>
    <circle cx="684.1" cy="95.3" r="1.3" class="pd"/>
    <circle cx="213.9" cy="56.0" r="2.1" class="ph"/>
    <circle cx="187.2" cy="54.7" r="1.9" class="pb"/>
    <circle cx="77.7" cy="50.3" r="1.9" class="ph"/>
    <circle cx="652.9" cy="10.7" r="2.2" class="pb"/>
    <circle cx="50.5" cy="81.5" r="2.5" class="pb"/>
    <circle cx="191.5" cy="25.0" r="1.9" class="pg"/>
    <circle cx="142.6" cy="53.6" r="2.6" class="pb"/>
    <circle cx="337.3" cy="95.4" r="2.1" class="pa"/>
    <circle cx="494.1" cy="61.8" r="1.2" class="pb"/>
    <circle cx="699.8" cy="94.1" r="1.5" class="ph"/>
    <circle cx="366.0" cy="95.8" r="2.6" class="pc"/>
    <circle cx="289.2" cy="108.5" r="1.6" class="ph"/>
    <circle cx="218.9" cy="78.1" r="2.4" class="ph"/>
    <circle cx="121.1" cy="36.2" r="2.7" class="pa"/>
    <circle cx="566.0" cy="11.0" r="2.1" class="pc"/>
    <circle cx="47.7" cy="58.3" r="2.6" class="pb"/>
    <circle cx="451.3" cy="75.9" r="1.6" class="pb"/>
    <circle cx="711.2" cy="64.8" r="2.1" class="pa"/>
    <circle cx="469.5" cy="49.0" r="2.1" class="pf"/>
    <circle cx="706.0" cy="26.4" r="2.3" class="pd"/>
    <circle cx="204.2" cy="18.7" r="2.2" class="ph"/>
    <circle cx="242.1" cy="83.9" r="1.3" class="ph"/>
    <circle cx="470.9" cy="64.1" r="1.4" class="pd"/>
    <circle cx="384.4" cy="18.9" r="1.8" class="pb"/>
    <circle cx="664.5" cy="43.8" r="1.5" class="pe"/>
    <circle cx="463.8" cy="108.7" r="2.2" class="pa"/>
    <circle cx="505.9" cy="63.2" r="2.7" class="pb"/>
    <circle cx="709.2" cy="19.1" r="1.4" class="pb"/>
    <circle cx="561.8" cy="21.3" r="1.7" class="pd"/>
    <circle cx="543.2" cy="26.4" r="2.2" class="pe"/>
    <circle cx="384.1" cy="31.4" r="2.7" class="pa"/>
    <circle cx="74.2" cy="49.5" r="1.6" class="pa"/>
    <circle cx="255.2" cy="18.7" r="2.8" class="pc"/>
    <circle cx="560.9" cy="62.9" r="1.9" class="pa"/>
    <circle cx="88.9" cy="104.2" r="2.3" class="pc"/>
    <circle cx="414.2" cy="92.6" r="2.1" class="pc"/>
    <circle cx="327.3" cy="9.4" r="1.8" class="pa"/>
    <circle cx="679.2" cy="27.1" r="1.6" class="pb"/>
    <circle cx="270.3" cy="63.8" r="2.6" class="pc"/>
    <circle cx="699.3" cy="29.9" r="1.5" class="pc"/>
    <circle cx="666.1" cy="7.6" r="2.4" class="pf"/>
    <circle cx="591.8" cy="48.2" r="2.3" class="pd"/>
    <circle cx="205.1" cy="87.7" r="1.4" class="pa"/>
    <circle cx="648.9" cy="28.4" r="2.5" class="ph"/>
    <circle cx="267.2" cy="91.2" r="2.6" class="pd"/>
    <circle cx="22.7" cy="25.3" r="1.7" class="pb"/>
    <circle cx="730.2" cy="34.3" r="2.2" class="pg"/>
    <circle cx="514.6" cy="93.6" r="1.7" class="pa"/>
    <circle cx="91.5" cy="106.9" r="1.5" class="pe"/>
    <circle cx="33.7" cy="67.6" r="1.8" class="pf"/>
    <circle cx="332.3" cy="108.3" r="1.4" class="pd"/>
    <circle cx="196.0" cy="79.4" r="1.2" class="pd"/>
    <circle cx="278.2" cy="12.3" r="2.3" class="pf"/>
    <circle cx="472.4" cy="74.7" r="1.4" class="pe"/>
    <circle cx="385.3" cy="75.0" r="1.7" class="pe"/>
    <circle cx="420.8" cy="25.1" r="2.3" class="pg"/>
    <circle cx="513.0" cy="99.8" r="2.2" class="pe"/>
    <circle cx="309.6" cy="92.5" r="1.7" class="pd"/>
    <circle cx="327.4" cy="65.9" r="2.2" class="ph"/>
    <circle cx="336.3" cy="75.9" r="2.0" class="pc"/>
    <circle cx="499.1" cy="34.8" r="2.3" class="pf"/>
    <circle cx="75.0" cy="105.0" r="1.6" class="pe"/>
    <circle cx="173.5" cy="25.9" r="1.2" class="pd"/>
    <circle cx="743.0" cy="69.2" r="2.4" class="ph"/>
    <circle cx="315.8" cy="71.1" r="1.5" class="pg"/>
    <circle cx="375.8" cy="30.6" r="2.2" class="pa"/>
    <circle cx="674.5" cy="95.3" r="2.6" class="pg"/>
    <circle cx="169.1" cy="89.4" r="2.3" class="ph"/>
    <circle cx="42.7" cy="31.2" r="2.6" class="ph"/>
    <circle cx="105.0" cy="53.8" r="2.0" class="pf"/>
    <circle cx="717.5" cy="98.6" r="2.2" class="pg"/>
    <circle cx="627.9" cy="62.5" r="2.6" class="ph"/>
    <circle cx="342.6" cy="83.9" r="2.5" class="pe"/>
    <circle cx="579.4" cy="59.7" r="2.2" class="pe"/>
    <circle cx="334.9" cy="79.9" r="1.6" class="pf"/>
    <circle cx="244.8" cy="61.7" r="1.4" class="pd"/>
    <circle cx="292.3" cy="21.0" r="1.5" class="pg"/>
  </g>
  <g class="text-layer">
    <g class="fade1">
      <text x="550" y="32" fill="#58a6ff" font-size="18" text-anchor="middle">Systems engineering for AI agents.</text>
    </g>
    <g class="fade2">
      <text x="550" y="57" fill="#58a6ff" font-size="18" text-anchor="middle">Operating contract. Workflow discipline.</text>
    </g>
    <g class="fade3">
      <text x="550" y="82" fill="#58a6ff" font-size="18" text-anchor="middle">Knowledge propagation. Shared context.</text>
    </g>
    <g class="fade4">
      <text x="550" y="109" fill="#58a6ff" font-size="18" text-anchor="middle">One hub. One contract. N repos. Shared knowledge flows both ways.</text>
    </g>
  </g>
</svg>
